<svg xmlns="http://www.w3.org/2000/svg" viewBox="0 0 126 126" width="126" height="126">
	<style>
		tspan { white-space:pre }
		.shp0 { fill: #000000 } 
	</style>
	<g id="Layer">
		<path id="Layer" fill-rule="evenodd" class="shp0" d="M88 93.12L88 126L0 126L0 93.12C0 87.3 3.92 82.15 9.52 80.6L29.3 75.11C29.22 75.08 29.15 75.06 29.07 75.03C26.49 73.96 24.6 71.8 23.86 69.14C21.12 69.48 18.4 68.56 16.42 66.58C14.45 64.6 13.52 61.88 13.86 59.14C11.2 58.4 9.04 56.51 7.97 53.92C6.9 51.34 7.09 48.47 8.44 46.07C6.27 44.37 5 41.8 5 39C5 36.2 6.27 33.63 8.44 31.93C7.09 29.52 6.9 26.66 7.97 24.07C9.04 21.49 11.2 19.6 13.86 18.86C13.52 16.12 14.44 13.4 16.42 11.42C18.4 9.44 21.11 8.52 23.86 8.86C24.6 6.2 26.49 4.04 29.07 2.97C31.66 1.9 34.52 2.08 36.93 3.44C38.63 1.27 41.2 0 44 0C46.8 0 49.37 1.27 51.07 3.44C53.48 2.08 56.34 1.9 58.92 2.97C61.51 4.04 63.4 6.2 64.14 8.86C66.89 8.53 69.6 9.44 71.58 11.42C73.55 13.4 74.48 16.12 74.14 18.86C76.8 19.6 78.96 21.49 80.03 24.07C81.1 26.66 80.91 29.52 79.55 31.93C81.73 33.63 83 36.2 83 39C83 41.8 81.73 44.37 79.55 46.07C80.91 48.47 81.1 51.34 80.03 53.92C78.96 56.51 76.8 58.4 74.14 59.14C74.48 61.88 73.55 64.6 71.58 66.58C69.6 68.55 66.88 69.47 64.14 69.14C63.4 71.8 61.51 73.96 58.92 75.03C58.85 75.06 58.78 75.08 58.7 75.11L78.48 80.6C84.08 82.15 88 87.3 88 93.12ZM72.22 90.26L75.58 81.87L64.82 78.89C64.93 79.24 65 79.61 65 80C65 81.92 63.64 83.53 61.83 83.91C61.93 84.26 62 84.62 62 85C62 86.92 60.64 88.53 58.83 88.91C58.93 89.26 59 89.62 59 90C59 92.21 57.21 94 55 94C55 95.53 54.14 96.85 52.87 97.52C54.2 99.34 55 101.57 55 104C55 110.06 50.06 115 44 115C37.93 115 33 110.06 33 104C33 101.57 33.8 99.34 35.13 97.52C33.86 96.85 33 95.53 33 94C30.79 94 29 92.21 29 90C29 89.62 29.07 89.26 29.17 88.91C27.36 88.53 26 86.92 26 85C26 84.62 26.07 84.26 26.17 83.91C24.36 83.53 23 81.92 23 80C23 79.61 23.07 79.24 23.18 78.88L12.42 81.87L15.78 90.26C17.25 93.94 18 97.82 18 101.78L18 124L70 124L70 101.78C70 97.82 70.75 93.94 72.22 90.26ZM29.71 77.07C30.5 77.8 31 78.84 31 80C31 80.38 30.93 80.74 30.83 81.09C32.64 81.47 34 83.08 34 85C34 85.38 33.93 85.74 33.83 86.09C35.64 86.47 37 88.08 37 90C39.01 90 40.67 91.5 40.94 93.44C41.91 93.16 42.94 93 44 93C45.06 93 46.08 93.16 47.06 93.44C47.33 91.5 48.98 90 51 90C51 88.08 52.36 86.47 54.17 86.09C54.07 85.74 54 85.38 54 85C54 83.08 55.36 81.47 57.17 81.09C57.07 80.74 57 80.38 57 80C57 78.84 57.5 77.8 58.29 77.07L56.28 76.52C55.08 77.57 51.49 80 44 80C36.51 80 32.92 77.57 31.72 76.52L29.71 77.07ZM29.84 73.18C30.21 73.34 30.6 73.45 31 73.53L31 67.76C26.15 64.03 23 58.18 23 51.6L23 36.31C23 34.2 24.35 32.34 26.43 31.57C27.06 31.33 27.66 31 28.2 30.59C27.45 29.58 27 28.35 27 27L29 27C29 29.21 30.79 31 33 31C33.94 31 34.83 30.66 35.55 30.06C35.2 29.11 35 28.08 35 27L37 27C37 30.86 40.14 34 44 34C47.86 34 51 30.86 51 27L53 27C53 28.08 52.8 29.1 52.45 30.06C53.17 30.65 54.06 31 55 31C57.21 31 59 29.21 59 27L61 27C61 28.35 60.55 29.58 59.8 30.59C60.34 31 60.94 31.33 61.57 31.57C63.65 32.34 65 34.2 65 36.31L65 51C65 57.65 61.86 63.58 57 67.43L57 73.53C57.4 73.45 57.79 73.34 58.16 73.18C60.41 72.25 61.99 70.25 62.38 67.83L62.55 66.77L63.6 67.02C65.98 67.58 68.44 66.88 70.16 65.16C71.89 63.44 72.58 60.99 72.02 58.6L71.77 57.55L72.83 57.38C75.25 56.99 77.25 55.41 78.18 53.16C79.12 50.91 78.82 48.37 77.38 46.38L76.76 45.51L77.67 44.95C79.75 43.66 81 41.44 81 39C81 36.56 79.75 34.34 77.67 33.05L76.76 32.48L77.38 31.61C78.82 29.62 79.12 27.09 78.18 24.84C77.25 22.59 75.25 21.01 72.83 20.62L71.77 20.45L72.02 19.4C72.58 17.01 71.88 14.56 70.16 12.84C68.44 11.11 65.98 10.42 63.6 10.98L62.55 11.23L62.38 10.17C61.99 7.75 60.41 5.75 58.16 4.82C55.9 3.88 53.37 4.18 51.38 5.61L50.51 6.24L49.95 5.33C48.66 3.24 46.44 2 44 2C41.56 2 39.34 3.24 38.05 5.33L37.48 6.24L36.61 5.61C34.63 4.18 32.09 3.88 29.84 4.81C27.59 5.75 26.01 7.75 25.62 10.17L25.44 11.23L24.4 10.98C22.02 10.42 19.56 11.11 17.84 12.84C16.11 14.56 15.42 17.01 15.98 19.4L16.23 20.45L15.17 20.62C12.75 21.01 10.75 22.59 9.82 24.84C8.88 27.09 9.18 29.62 10.61 31.61L11.24 32.48L10.33 33.05C8.24 34.34 7 36.56 7 39C7 41.44 8.24 43.66 10.33 44.95L11.24 45.52L10.61 46.39C9.18 48.38 8.88 50.91 9.81 53.16C10.75 55.41 12.75 56.99 15.17 57.38L16.23 57.55L15.98 58.6C15.42 60.99 16.11 63.44 17.84 65.16C19.56 66.89 22.02 67.58 24.4 67.02L25.44 66.77L25.62 67.83C26.01 70.25 27.59 72.25 29.84 73.18ZM27.12 33.44C25.83 33.92 25 35.05 25 36.31L25 38.18C25.31 38.07 25.65 38 26 38L38 38C39.65 38 41 39.35 41 41L41 51C41 52.65 42.35 54 44 54C45.65 54 47 52.65 47 51L47 41C47 39.35 48.35 38 50 38L62 38C62.35 38 62.69 38.07 63 38.18L63 36.31C63 35.05 62.17 33.92 60.88 33.44C59.96 33.1 59.1 32.6 58.33 31.99C57.38 32.63 56.23 33 55 33C53.75 33 52.55 32.6 51.54 31.89C49.93 34.36 47.16 36 44 36C40.84 36 38.06 34.36 36.46 31.89C35.45 32.6 34.25 33 33 33C31.77 33 30.62 32.63 29.67 31.99C28.9 32.6 28.04 33.1 27.12 33.44ZM39 41C39 40.45 38.55 40 38 40L26 40C25.45 40 25 40.45 25 41L25 45C25 46.65 26.35 48 28 48L36 48C37.65 48 39 46.65 39 45L39 41ZM25 51.6C25 61.75 33.25 70 43.4 70L43.9 70C54.43 70 63 61.48 63 51L63 48.97C62.16 49.61 61.13 50 60 50L52 50C50.87 50 49.84 49.61 49 48.97L49 51C49 53.76 46.76 56 44 56C41.24 56 39 53.76 39 51L39 48.97C38.16 49.61 37.13 50 36 50L28 50C26.87 50 25.84 49.61 25 48.97L25 51.6ZM33 69.12L33 74.98C33.81 75.7 36.96 78 44 78C51.03 78 54.17 75.71 55 74.98L55 68.83C51.77 70.82 47.98 72 43.9 72L43.4 72C39.6 72 36.05 70.94 33 69.12ZM54.37 91.87C55.67 92.31 57 91.31 57 90C57 88.9 56.1 88 55 88C53.9 88 53 88.9 53 90C53 90.21 53.05 90.42 53.12 90.62C53.63 90.94 54.05 91.36 54.37 91.87ZM34.88 90.62C34.95 90.42 35 90.21 35 90C35 88.9 34.1 88 33 88C31.9 88 31 88.9 31 90C31 91.31 32.33 92.31 33.63 91.87C33.95 91.36 34.37 90.94 34.88 90.62ZM29 80C29 78.9 28.1 78 27 78C25.9 78 25 78.9 25 80C25 81.1 25.9 82 27 82C27.14 82 27.3 81.97 27.47 81.92C27.78 81.67 28.12 81.45 28.5 81.3C28.82 80.93 29 80.48 29 80ZM28 85C28 86.1 28.9 87 30 87C30.14 87 30.3 86.97 30.47 86.92C30.78 86.67 31.12 86.45 31.5 86.3C31.82 85.93 32 85.48 32 85C32 83.9 31.1 83 30 83C28.9 83 28 83.9 28 85ZM35 94C35 94.94 35.65 95.73 36.54 95.94C37.27 95.26 38.09 94.68 38.98 94.22C38.99 94.15 39 94.07 39 94C39 92.9 38.1 92 37 92C35.9 92 35 92.9 35 94ZM35 104C35 108.96 39.04 113 44 113C48.96 113 53 108.96 53 104C53 99.04 48.96 95 44 95C39.04 95 35 99.04 35 104ZM53 94C53 92.9 52.1 92 51 92C49.9 92 49 92.9 49 94C49 94.07 49.01 94.15 49.02 94.22C49.91 94.68 50.73 95.26 51.46 95.94C52.35 95.73 53 94.94 53 94ZM58 87C59.1 87 60 86.1 60 85C60 83.9 59.1 83 58 83C56.9 83 56 83.9 56 85C56 85.48 56.18 85.93 56.5 86.3C56.88 86.45 57.22 86.67 57.53 86.92C57.7 86.97 57.85 87 58 87ZM61 82C62.1 82 63 81.1 63 80C63 78.9 62.1 78 61 78C59.9 78 59 78.9 59 80C59 80.48 59.18 80.93 59.5 81.3C59.88 81.45 60.22 81.67 60.53 81.92C60.7 81.97 60.85 82 61 82ZM49 45C49 46.65 50.35 48 52 48L60 48C61.65 48 63 46.65 63 45L63 41C63 40.45 62.55 40 62 40L50 40C49.45 40 49 40.45 49 41L49 45ZM2 93.12L2 113L16 113L16 101.78C16 98.07 15.3 94.45 13.93 91.01L10.49 82.41L10.06 82.52C5.31 83.84 2 88.2 2 93.12ZM2 124L16 124L16 115L2 115L2 124ZM86 124L86 115L72 115L72 124L86 124ZM86 93.12C86 88.2 82.68 83.84 77.94 82.52L77.51 82.4L74.07 91.01C72.7 94.45 72 98.07 72 101.78L72 113L86 113L86 93.12Z" />
		<path id="Layer" class="shp0" d="M44 64C47.72 64 51.28 62.39 53.75 59.58L52.25 58.26C50.15 60.64 47.15 62 44 62C40.85 62 37.84 60.64 35.75 58.26L34.25 59.58C36.72 62.39 40.28 64 44 64Z" />
		<path id="Layer" class="shp0" d="M43 108.82L43 111L45 111L45 108.82C46.16 108.4 47 107.3 47 106C47 104.35 45.65 103 44 103C43.45 103 43 102.55 43 102C43 101.45 43.45 101 44 101C44.55 101 45 101.45 45 102L45 103L47 103L47 102C47 100.7 46.16 99.6 45 99.18L45 97L43 97L43 99.18C41.84 99.6 41 100.7 41 102C41 103.65 42.35 105 44 105C44.55 105 45 105.45 45 106C45 106.55 44.55 107 44 107C43.45 107 43 106.55 43 106L43 105L41 105L41 106C41 107.3 41.84 108.4 43 108.82Z" />
		<path id="Layer" class="shp0" d="M49 103L51 103L51 105L49 105L49 103Z" />
		<path id="Layer" class="shp0" d="M37 103L39 103L39 105L37 105L37 103Z" />
		<path id="Layer" fill-rule="evenodd" class="shp0" d="M124.18 46.3L120 53.28L120 91C120 92.39 119.04 93.55 117.76 93.89L115.72 100L114 100L114 103C114 106.86 110.86 110 107 110C103.14 110 100 106.86 100 103L100 63C100 61.35 98.65 60 97 60C95.35 60 94 61.35 94 63L94 74C94 76.76 91.76 79 89 79C86.24 79 84 76.76 84 74L84 51.42C83.58 51.27 83.2 51.04 82.87 50.72C82.31 50.16 82 49.4 82 48.6C82 47.8 82.31 47.05 82.87 46.48C82.88 46.48 82.88 46.48 82.88 46.48C84.01 45.35 85.98 45.35 87.12 46.48C87.68 47.05 88 47.8 88 48.6C88 49.4 87.68 50.16 87.12 50.72C86.8 51.04 86.41 51.27 86 51.42L86 74C86 75.65 87.35 77 89 77C90.65 77 92 75.65 92 74L92 63C92 60.24 94.24 58 97 58C99.76 58 102 60.24 102 63L102 103C102 105.76 104.24 108 107 108C109.76 108 112 105.76 112 103L112 100L110.28 100L108.24 93.89C106.96 93.55 106 92.39 106 91L106 53.28L101.82 46.3C100.63 44.32 100 42.06 100 39.75C100 32.72 105.72 27 112.75 27L113.25 27C120.28 27 126 32.72 126 39.75C126 42.06 125.37 44.32 124.18 46.3ZM84 48.6C84 48.87 84.1 49.12 84.29 49.31C84.67 49.69 85.32 49.69 85.7 49.31C85.89 49.12 86 48.87 86 48.6C86 48.33 85.89 48.08 85.7 47.89C85.51 47.71 85.26 47.6 85 47.6C84.73 47.6 84.48 47.71 84.29 47.89C84.1 48.08 84 48.33 84 48.6ZM102.08 41L123.91 41C123.96 40.58 124 40.17 124 39.75C124 39.49 123.98 39.25 123.96 39L102.04 39C102.02 39.25 102 39.49 102 39.75C102 40.17 102.04 40.58 102.08 41ZM102.37 37L123.63 37C122.41 32.4 118.23 29 113.25 29L112.75 29C107.77 29 103.59 32.4 102.37 37ZM118 54L108 54L108 56L118 56L118 54ZM108 87L118 87L118 58L108 58L108 87ZM114.28 98L115.61 94L110.39 94L111.72 98L114.28 98ZM118 91L118 89L108 89L108 91C108 91.55 108.45 92 109 92L117 92C117.55 92 118 91.55 118 91ZM122.47 45.27C122.9 44.56 123.22 43.79 123.48 43L102.53 43C102.78 43.79 103.1 44.56 103.53 45.27L107.57 52L118.43 52L122.47 45.27Z" />
		<path id="Layer" fill-rule="evenodd" class="shp0" d="M116 63L116 67C116 68.65 114.65 70 113 70C111.35 70 110 68.65 110 67L110 63C110 61.35 111.35 60 113 60C114.65 60 116 61.35 116 63ZM112 63L112 64L114 64L114 63C114 62.45 113.55 62 113 62C112.45 62 112 62.45 112 63ZM114 67L114 66L112 66L112 67C112 67.55 112.45 68 113 68C113.55 68 114 67.55 114 67Z" />
		<path id="Layer" class="shp0" d="M112 72L114 72L114 74L112 74L112 72Z" />
		<path id="Layer" class="shp0" d="M112 76L114 76L114 78L112 78L112 76Z" />
		<path id="Layer" class="shp0" d="M112 80L114 80L114 82L112 82L112 80Z" />
		<path id="Layer" class="shp0" d="M112 45L114 45L114 47L112 47L112 45Z" />
		<path id="Layer" class="shp0" d="M116 45L118 45L118 47L116 47L116 45Z" />
		<path id="Layer" class="shp0" d="M108 45L110 45L110 47L108 47L108 45Z" />
	</g>
</svg>